<?xml version="1.0" encoding="utf-8" standalone="no"?>
<!DOCTYPE svg PUBLIC "-//W3C//DTD SVG 1.1//EN"
  "http://www.w3.org/Graphics/SVG/1.1/DTD/svg11.dtd">
<svg xmlns:xlink="http://www.w3.org/1999/xlink" width="684.527203pt" height="178.056pt" viewBox="0 0 684.527203 178.056" xmlns="http://www.w3.org/2000/svg" version="1.1">
 <metadata>
  <rdf:RDF xmlns:dc="http://purl.org/dc/elements/1.1/" xmlns:cc="http://creativecommons.org/ns#" xmlns:rdf="http://www.w3.org/1999/02/22-rdf-syntax-ns#">
   <cc:Work>
    <dc:type rdf:resource="http://purl.org/dc/dcmitype/StillImage"/>
    <dc:date>2026-07-20T14:39:11.358661</dc:date>
    <dc:format>image/svg+xml</dc:format>
    <dc:creator>
     <cc:Agent>
      <dc:title>Matplotlib v3.11.1, https://matplotlib.org/</dc:title>
     </cc:Agent>
    </dc:creator>
   </cc:Work>
  </rdf:RDF>
 </metadata>
 <defs>
  <style type="text/css">*{stroke-linejoin: round; stroke-linecap: butt}</style>
 </defs>
 <g id="figure_1">
  <g id="patch_1">
   <path d="M 0 178.056 
L 684.527203 178.056 
L 684.527203 0 
L 0 0 
L 0 178.056 
z
" style="fill: none"/>
  </g>
  <g id="axes_1">
   <g id="line2d_1">
    <path d="M 53.28 89.028 
L 95.13 89.028 
" clip-path="url(#pe1fa7608a1)" style="fill: none; stroke: #0a0a0a; stroke-opacity: 0.55; stroke-width: 1.6; stroke-linecap: round"/>
   </g>
   <g id="line2d_2">
    <path d="M 53.28 89.028 
L 95.13 127.836 
" clip-path="url(#pe1fa7608a1)" style="fill: none; stroke: #0a0a0a; stroke-opacity: 0.22; stroke-width: 1.3; stroke-linecap: round"/>
   </g>
   <g id="line2d_3">
    <path d="M 95.13 50.22 
L 136.98 61.308 
" clip-path="url(#pe1fa7608a1)" style="fill: none; stroke: #0a0a0a; stroke-opacity: 0.22; stroke-width: 1.3; stroke-linecap: round"/>
   </g>
   <g id="line2d_4">
    <path d="M 95.13 89.028 
L 136.98 89.028 
" clip-path="url(#pe1fa7608a1)" style="fill: none; stroke: #0a0a0a; stroke-opacity: 0.55; stroke-width: 1.6; stroke-linecap: round"/>
   </g>
   <g id="line2d_5">
    <path d="M 95.13 127.836 
L 136.98 116.748 
" clip-path="url(#pe1fa7608a1)" style="fill: none; stroke: #0a0a0a; stroke-opacity: 0.22; stroke-width: 1.3; stroke-linecap: round"/>
   </g>
   <g id="line2d_6">
    <path d="M 95.13 127.836 
L 136.98 138.924 
" clip-path="url(#pe1fa7608a1)" style="fill: none; stroke: #0a0a0a; stroke-opacity: 0.22; stroke-width: 1.3; stroke-linecap: round"/>
   </g>
   <g id="line2d_7">
    <path d="M 136.98 33.588 
L 178.83 44.676 
" clip-path="url(#pe1fa7608a1)" style="fill: none; stroke: #0a0a0a; stroke-opacity: 0.22; stroke-width: 1.3; stroke-linecap: round"/>
   </g>
   <g id="line2d_8">
    <path d="M 136.98 89.028 
L 178.83 89.028 
" clip-path="url(#pe1fa7608a1)" style="fill: none; stroke: #0a0a0a; stroke-opacity: 0.55; stroke-width: 1.6; stroke-linecap: round"/>
   </g>
   <g id="line2d_9">
    <path d="M 136.98 116.748 
L 178.83 116.748 
" clip-path="url(#pe1fa7608a1)" style="fill: none; stroke: #0a0a0a; stroke-opacity: 0.22; stroke-width: 1.3; stroke-linecap: round"/>
   </g>
   <g id="text_1">
    <!-- Auto -->
    <g style="fill: #0a0a0a" transform="translate(216.216 90.325053) scale(0.5 -0.5)">
     <defs>
      <path id="SegoeUI-Semibold-24" d="M 4234 0 
L 3419 0 
L 3016 1141 
L 1253 1141 
L 866 0 
L 53 0 
L 1731 4481 
L 2569 4481 
L 4234 0 
z
M 2819 1747 
L 2197 3534 
Q 2169 3622 2138 3816 
L 2125 3816 
Q 2097 3638 2063 3534 
L 1447 1747 
L 2819 1747 
z
" transform="scale(0.015625)"/>
      <path id="SegoeUI-Semibold-58" d="M 3263 0 
L 2538 0 
L 2538 506 
L 2525 506 
Q 2209 -75 1544 -75 
Q 409 -75 409 1288 
L 409 3200 
L 1134 3200 
L 1134 1363 
Q 1134 500 1800 500 
Q 2122 500 2330 737 
Q 2538 975 2538 1359 
L 2538 3200 
L 3263 3200 
L 3263 0 
z
" transform="scale(0.015625)"/>
      <path id="SegoeUI-Semibold-57" d="M 2159 34 
Q 1947 -72 1600 -72 
Q 669 -72 669 822 
L 669 2631 
L 134 2631 
L 134 3200 
L 669 3200 
L 669 3941 
L 1394 4147 
L 1394 3200 
L 2159 3200 
L 2159 2631 
L 1394 2631 
L 1394 1031 
Q 1394 747 1497 625 
Q 1600 503 1841 503 
Q 2025 503 2159 609 
L 2159 34 
z
" transform="scale(0.015625)"/>
      <path id="SegoeUI-Semibold-52" d="M 1891 -75 
Q 1150 -75 708 373 
Q 266 822 266 1563 
Q 266 2369 727 2822 
Q 1188 3275 1969 3275 
Q 2719 3275 3137 2834 
Q 3556 2394 3556 1613 
Q 3556 847 3104 386 
Q 2653 -75 1891 -75 
z
M 1925 2697 
Q 1500 2697 1253 2400 
Q 1006 2103 1006 1581 
Q 1006 1078 1256 789 
Q 1506 500 1925 500 
Q 2353 500 2583 784 
Q 2813 1069 2813 1594 
Q 2813 2122 2583 2409 
Q 2353 2697 1925 2697 
z
" transform="scale(0.015625)"/>
     </defs>
     <use xlink:href="#SegoeUI-Semibold-24"/>
     <use xlink:href="#SegoeUI-Semibold-58" transform="translate(67.140625 0)"/>
     <use xlink:href="#SegoeUI-Semibold-57" transform="translate(125.484375 0)"/>
     <use xlink:href="#SegoeUI-Semibold-52" transform="translate(161.046875 0)"/>
    </g>
   </g>
   <g id="text_2">
    <!-- Tree -->
    <g style="fill: #76b900" transform="translate(325.584 90.325053) scale(0.5 -0.5)">
     <defs>
      <path id="SegoeUI-Semibold-37" d="M 3428 3850 
L 2141 3850 
L 2141 0 
L 1397 0 
L 1397 3850 
L 113 3850 
L 113 4481 
L 3428 4481 
L 3428 3850 
z
" transform="scale(0.015625)"/>
      <path id="SegoeUI-Semibold-55" d="M 2328 2509 
Q 2197 2613 1950 2613 
Q 1628 2613 1412 2322 
Q 1197 2031 1197 1531 
L 1197 0 
L 472 0 
L 472 3200 
L 1197 3200 
L 1197 2541 
L 1209 2541 
Q 1316 2878 1536 3067 
Q 1756 3256 2028 3256 
Q 2225 3256 2328 3197 
L 2328 2509 
z
" transform="scale(0.015625)"/>
      <path id="SegoeUI-Semibold-48" d="M 3181 1403 
L 1000 1403 
Q 1013 959 1273 718 
Q 1534 478 1991 478 
Q 2503 478 2931 784 
L 2931 200 
Q 2494 -75 1775 -75 
Q 1069 -75 667 361 
Q 266 797 266 1588 
Q 266 2334 708 2804 
Q 1150 3275 1806 3275 
Q 2463 3275 2822 2853 
Q 3181 2431 3181 1681 
L 3181 1403 
z
M 2481 1916 
Q 2478 2306 2297 2523 
Q 2116 2741 1797 2741 
Q 1484 2741 1267 2512 
Q 1050 2284 1000 1916 
L 2481 1916 
z
" transform="scale(0.015625)"/>
     </defs>
     <use xlink:href="#SegoeUI-Semibold-37"/>
     <use xlink:href="#SegoeUI-Semibold-55" transform="translate(47.015625 0)"/>
     <use xlink:href="#SegoeUI-Semibold-48" transform="translate(83.15625 0)"/>
     <use xlink:href="#SegoeUI-Semibold-48" transform="translate(136.28125 0)"/>
    </g>
   </g>
   <g id="text_3">
    <!-- Tree execution for LLM inference. Fork, merge, prune KV at token granularity. -->
    <g style="fill: #0a0a0a; opacity: 0.55" transform="translate(219.564 132.979669) scale(0.135 -0.135)">
     <defs>
      <path id="SegoeUI-37" d="M 3238 4006 
L 1944 4006 
L 1944 0 
L 1419 0 
L 1419 4006 
L 128 4006 
L 128 4481 
L 3238 4481 
L 3238 4006 
z
" transform="scale(0.015625)"/>
      <path id="SegoeUI-55" d="M 2188 2681 
Q 2053 2784 1800 2784 
Q 1472 2784 1251 2475 
Q 1031 2166 1031 1631 
L 1031 0 
L 519 0 
L 519 3200 
L 1031 3200 
L 1031 2541 
L 1044 2541 
Q 1153 2878 1378 3067 
Q 1603 3256 1881 3256 
Q 2081 3256 2188 3213 
L 2188 2681 
z
" transform="scale(0.015625)"/>
      <path id="SegoeUI-48" d="M 3091 1472 
L 831 1472 
Q 844 938 1119 647 
Q 1394 356 1875 356 
Q 2416 356 2869 713 
L 2869 231 
Q 2447 -75 1753 -75 
Q 1075 -75 687 361 
Q 300 797 300 1588 
Q 300 2334 723 2804 
Q 1147 3275 1775 3275 
Q 2403 3275 2747 2869 
Q 3091 2463 3091 1741 
L 3091 1472 
z
M 2566 1906 
Q 2563 2350 2352 2597 
Q 2141 2844 1766 2844 
Q 1403 2844 1150 2584 
Q 897 2325 838 1906 
L 2566 1906 
z
" transform="scale(0.015625)"/>
      <path id="SegoeUI-3" transform="scale(0.015625)"/>
      <path id="SegoeUI-5b" d="M 2856 3200 
L 1781 1581 
L 2838 0 
L 2241 0 
L 1613 1038 
Q 1553 1134 1472 1281 
L 1459 1281 
Q 1444 1253 1313 1038 
L 672 0 
L 81 0 
L 1172 1569 
L 128 3200 
L 725 3200 
L 1344 2106 
Q 1413 1984 1478 1856 
L 1491 1856 
L 2291 3200 
L 2856 3200 
z
" transform="scale(0.015625)"/>
      <path id="SegoeUI-46" d="M 2700 147 
Q 2331 -75 1825 -75 
Q 1141 -75 720 370 
Q 300 816 300 1525 
Q 300 2316 753 2795 
Q 1206 3275 1963 3275 
Q 2384 3275 2706 3119 
L 2706 2594 
Q 2350 2844 1944 2844 
Q 1453 2844 1139 2492 
Q 825 2141 825 1569 
Q 825 1006 1120 681 
Q 1416 356 1913 356 
Q 2331 356 2700 634 
L 2700 147 
z
" transform="scale(0.015625)"/>
      <path id="SegoeUI-58" d="M 3106 0 
L 2594 0 
L 2594 506 
L 2581 506 
Q 2263 -75 1594 -75 
Q 450 -75 450 1288 
L 450 3200 
L 959 3200 
L 959 1369 
Q 959 356 1734 356 
Q 2109 356 2351 632 
Q 2594 909 2594 1356 
L 2594 3200 
L 3106 3200 
L 3106 0 
z
" transform="scale(0.015625)"/>
      <path id="SegoeUI-57" d="M 2003 31 
Q 1822 -69 1525 -69 
Q 684 -69 684 869 
L 684 2763 
L 134 2763 
L 134 3200 
L 684 3200 
L 684 3981 
L 1197 4147 
L 1197 3200 
L 2003 3200 
L 2003 2763 
L 1197 2763 
L 1197 959 
Q 1197 638 1306 500 
Q 1416 363 1669 363 
Q 1863 363 2003 469 
L 2003 31 
z
" transform="scale(0.015625)"/>
      <path id="SegoeUI-4c" d="M 781 4013 
Q 644 4013 547 4106 
Q 450 4200 450 4344 
Q 450 4488 547 4583 
Q 644 4678 781 4678 
Q 922 4678 1020 4583 
Q 1119 4488 1119 4344 
Q 1119 4206 1020 4109 
Q 922 4013 781 4013 
z
M 1031 0 
L 519 0 
L 519 3200 
L 1031 3200 
L 1031 0 
z
" transform="scale(0.015625)"/>
      <path id="SegoeUI-52" d="M 1856 -75 
Q 1147 -75 723 373 
Q 300 822 300 1563 
Q 300 2369 740 2822 
Q 1181 3275 1931 3275 
Q 2647 3275 3048 2834 
Q 3450 2394 3450 1613 
Q 3450 847 3017 386 
Q 2584 -75 1856 -75 
z
M 1894 2844 
Q 1400 2844 1112 2508 
Q 825 2172 825 1581 
Q 825 1013 1115 684 
Q 1406 356 1894 356 
Q 2391 356 2658 678 
Q 2925 1000 2925 1594 
Q 2925 2194 2658 2519 
Q 2391 2844 1894 2844 
z
" transform="scale(0.015625)"/>
      <path id="SegoeUI-51" d="M 3175 0 
L 2663 0 
L 2663 1825 
Q 2663 2844 1919 2844 
Q 1534 2844 1282 2555 
Q 1031 2266 1031 1825 
L 1031 0 
L 519 0 
L 519 3200 
L 1031 3200 
L 1031 2669 
L 1044 2669 
Q 1406 3275 2094 3275 
Q 2619 3275 2897 2936 
Q 3175 2597 3175 1956 
L 3175 0 
z
" transform="scale(0.015625)"/>
      <path id="SegoeUI-49" d="M 2100 4288 
Q 1950 4372 1759 4372 
Q 1222 4372 1222 3694 
L 1222 3200 
L 1972 3200 
L 1972 2763 
L 1222 2763 
L 1222 0 
L 713 0 
L 713 2763 
L 166 2763 
L 166 3200 
L 713 3200 
L 713 3719 
Q 713 4222 1003 4514 
Q 1294 4806 1728 4806 
Q 1963 4806 2100 4750 
L 2100 4288 
z
" transform="scale(0.015625)"/>
      <path id="SegoeUI-2f" d="M 2913 0 
L 588 0 
L 588 4481 
L 1113 4481 
L 1113 475 
L 2913 475 
L 2913 0 
z
" transform="scale(0.015625)"/>
      <path id="SegoeUI-30" d="M 5156 0 
L 4634 0 
L 4634 3006 
Q 4634 3363 4678 3878 
L 4666 3878 
Q 4591 3575 4531 3444 
L 3000 0 
L 2744 0 
L 1216 3419 
Q 1150 3569 1081 3878 
L 1069 3878 
Q 1094 3609 1094 3000 
L 1094 0 
L 588 0 
L 588 4481 
L 1281 4481 
L 2656 1356 
Q 2816 997 2863 819 
L 2881 819 
Q 3016 1188 3097 1369 
L 4500 4481 
L 5156 4481 
L 5156 0 
z
" transform="scale(0.015625)"/>
      <path id="SegoeUI-11" d="M 697 -69 
Q 553 -69 451 34 
Q 350 138 350 281 
Q 350 425 451 529 
Q 553 634 697 634 
Q 844 634 947 529 
Q 1050 425 1050 281 
Q 1050 138 947 34 
Q 844 -69 697 -69 
z
" transform="scale(0.015625)"/>
      <path id="SegoeUI-29" d="M 2863 4006 
L 1113 4006 
L 1113 2456 
L 2731 2456 
L 2731 1984 
L 1113 1984 
L 1113 0 
L 588 0 
L 588 4481 
L 2863 4481 
L 2863 4006 
z
" transform="scale(0.015625)"/>
      <path id="SegoeUI-4e" d="M 3175 0 
L 2456 0 
L 1044 1538 
L 1031 1538 
L 1031 0 
L 519 0 
L 519 4738 
L 1031 4738 
L 1031 1734 
L 1044 1734 
L 2388 3200 
L 3059 3200 
L 1575 1656 
L 3175 0 
z
" transform="scale(0.015625)"/>
      <path id="SegoeUI-f" d="M 988 713 
L 488 -825 
L 122 -825 
L 488 713 
L 988 713 
z
" transform="scale(0.015625)"/>
      <path id="SegoeUI-50" d="M 5063 0 
L 4550 0 
L 4550 1838 
Q 4550 2369 4386 2606 
Q 4222 2844 3834 2844 
Q 3506 2844 3276 2544 
Q 3047 2244 3047 1825 
L 3047 0 
L 2534 0 
L 2534 1900 
Q 2534 2844 1806 2844 
Q 1469 2844 1250 2561 
Q 1031 2278 1031 1825 
L 1031 0 
L 519 0 
L 519 3200 
L 1031 3200 
L 1031 2694 
L 1044 2694 
Q 1384 3275 2038 3275 
Q 2366 3275 2609 3092 
Q 2853 2909 2944 2613 
Q 3300 3275 4006 3275 
Q 5063 3275 5063 1972 
L 5063 0 
z
" transform="scale(0.015625)"/>
      <path id="SegoeUI-4a" d="M 3250 256 
Q 3250 -1506 1563 -1506 
Q 969 -1506 525 -1281 
L 525 -769 
Q 1066 -1069 1556 -1069 
Q 2738 -1069 2738 188 
L 2738 538 
L 2725 538 
Q 2359 -75 1625 -75 
Q 1028 -75 664 351 
Q 300 778 300 1497 
Q 300 2313 692 2794 
Q 1084 3275 1766 3275 
Q 2413 3275 2725 2756 
L 2738 2756 
L 2738 3200 
L 3250 3200 
L 3250 256 
z
M 2738 1447 
L 2738 1919 
Q 2738 2300 2480 2572 
Q 2222 2844 1838 2844 
Q 1363 2844 1094 2498 
Q 825 2153 825 1531 
Q 825 997 1083 676 
Q 1341 356 1766 356 
Q 2197 356 2467 662 
Q 2738 969 2738 1447 
z
" transform="scale(0.015625)"/>
      <path id="SegoeUI-53" d="M 1044 463 
L 1031 463 
L 1031 -1472 
L 519 -1472 
L 519 3200 
L 1031 3200 
L 1031 2638 
L 1044 2638 
Q 1422 3275 2150 3275 
Q 2769 3275 3116 2845 
Q 3463 2416 3463 1694 
Q 3463 891 3072 408 
Q 2681 -75 2003 -75 
Q 1381 -75 1044 463 
z
M 1031 1753 
L 1031 1306 
Q 1031 909 1289 632 
Q 1547 356 1944 356 
Q 2409 356 2673 712 
Q 2938 1069 2938 1703 
Q 2938 2238 2691 2541 
Q 2444 2844 2022 2844 
Q 1575 2844 1303 2533 
Q 1031 2222 1031 1753 
z
" transform="scale(0.015625)"/>
      <path id="SegoeUI-2e" d="M 3706 0 
L 2975 0 
L 1244 2050 
Q 1147 2166 1125 2206 
L 1113 2206 
L 1113 0 
L 588 0 
L 588 4481 
L 1113 4481 
L 1113 2375 
L 1125 2375 
Q 1169 2444 1244 2528 
L 2919 4481 
L 3572 4481 
L 1650 2331 
L 3706 0 
z
" transform="scale(0.015625)"/>
      <path id="SegoeUI-39" d="M 3919 4481 
L 2259 0 
L 1681 0 
L 56 4481 
L 641 4481 
L 1881 928 
Q 1941 756 1972 531 
L 1984 531 
Q 2009 719 2088 934 
L 3353 4481 
L 3919 4481 
z
" transform="scale(0.015625)"/>
      <path id="SegoeUI-44" d="M 2809 0 
L 2297 0 
L 2297 500 
L 2284 500 
Q 1950 -75 1300 -75 
Q 822 -75 551 178 
Q 281 431 281 850 
Q 281 1747 1338 1894 
L 2297 2028 
Q 2297 2844 1638 2844 
Q 1059 2844 594 2450 
L 594 2975 
Q 1066 3275 1681 3275 
Q 2809 3275 2809 2081 
L 2809 0 
z
M 2297 1619 
L 1525 1513 
Q 1169 1463 987 1336 
Q 806 1209 806 888 
Q 806 653 973 504 
Q 1141 356 1419 356 
Q 1800 356 2048 623 
Q 2297 891 2297 1300 
L 2297 1619 
z
" transform="scale(0.015625)"/>
      <path id="SegoeUI-4f" d="M 1031 0 
L 519 0 
L 519 4738 
L 1031 4738 
L 1031 0 
z
" transform="scale(0.015625)"/>
      <path id="SegoeUI-5c" d="M 3066 3200 
L 1594 -513 
Q 1200 -1506 488 -1506 
Q 288 -1506 153 -1466 
L 153 -1006 
Q 319 -1063 456 -1063 
Q 844 -1063 1038 -600 
L 1294 6 
L 44 3200 
L 613 3200 
L 1478 738 
Q 1494 691 1544 494 
L 1563 494 
Q 1578 569 1625 731 
L 2534 3200 
L 3066 3200 
z
" transform="scale(0.015625)"/>
     </defs>
     <use xlink:href="#SegoeUI-37"/>
     <use xlink:href="#SegoeUI-55" transform="translate(43.703125 0)"/>
     <use xlink:href="#SegoeUI-48" transform="translate(78.46875 0)"/>
     <use xlink:href="#SegoeUI-48" transform="translate(130.765625 0)"/>
     <use xlink:href="#SegoeUI-3" transform="translate(183.0625 0)"/>
     <use xlink:href="#SegoeUI-48" transform="translate(210.453125 0)"/>
     <use xlink:href="#SegoeUI-5b" transform="translate(262.75 0)"/>
     <use xlink:href="#SegoeUI-48" transform="translate(308.65625 0)"/>
     <use xlink:href="#SegoeUI-46" transform="translate(360.953125 0)"/>
     <use xlink:href="#SegoeUI-58" transform="translate(407.140625 0)"/>
     <use xlink:href="#SegoeUI-57" transform="translate(463.734375 0)"/>
     <use xlink:href="#SegoeUI-4c" transform="translate(497.625 0)"/>
     <use xlink:href="#SegoeUI-52" transform="translate(521.84375 0)"/>
     <use xlink:href="#SegoeUI-51" transform="translate(580.4375 0)"/>
     <use xlink:href="#SegoeUI-3" transform="translate(637.03125 0)"/>
     <use xlink:href="#SegoeUI-49" transform="translate(664.421875 0)"/>
     <use xlink:href="#SegoeUI-52" transform="translate(695.71875 0)"/>
     <use xlink:href="#SegoeUI-55" transform="translate(754.3125 0)"/>
     <use xlink:href="#SegoeUI-3" transform="translate(789.078125 0)"/>
     <use xlink:href="#SegoeUI-2f" transform="translate(816.46875 0)"/>
     <use xlink:href="#SegoeUI-2f" transform="translate(863.546875 0)"/>
     <use xlink:href="#SegoeUI-30" transform="translate(910.625 0)"/>
     <use xlink:href="#SegoeUI-3" transform="translate(1000.421875 0)"/>
     <use xlink:href="#SegoeUI-4c" transform="translate(1027.8125 0)"/>
     <use xlink:href="#SegoeUI-51" transform="translate(1052.03125 0)"/>
     <use xlink:href="#SegoeUI-49" transform="translate(1108.625 0)"/>
     <use xlink:href="#SegoeUI-48" transform="translate(1139.921875 0)"/>
     <use xlink:href="#SegoeUI-55" transform="translate(1192.21875 0)"/>
     <use xlink:href="#SegoeUI-48" transform="translate(1226.984375 0)"/>
     <use xlink:href="#SegoeUI-51" transform="translate(1279.28125 0)"/>
     <use xlink:href="#SegoeUI-46" transform="translate(1335.875 0)"/>
     <use xlink:href="#SegoeUI-48" transform="translate(1382.0625 0)"/>
     <use xlink:href="#SegoeUI-11" transform="translate(1434.359375 0)"/>
     <use xlink:href="#SegoeUI-3" transform="translate(1456.046875 0)"/>
     <use xlink:href="#SegoeUI-29" transform="translate(1483.4375 0)"/>
     <use xlink:href="#SegoeUI-52" transform="translate(1532.265625 0)"/>
     <use xlink:href="#SegoeUI-55" transform="translate(1590.859375 0)"/>
     <use xlink:href="#SegoeUI-4e" transform="translate(1625.625 0)"/>
     <use xlink:href="#SegoeUI-f" transform="translate(1675.328125 0)"/>
     <use xlink:href="#SegoeUI-3" transform="translate(1697.015625 0)"/>
     <use xlink:href="#SegoeUI-50" transform="translate(1724.40625 0)"/>
     <use xlink:href="#SegoeUI-48" transform="translate(1810.546875 0)"/>
     <use xlink:href="#SegoeUI-55" transform="translate(1862.84375 0)"/>
     <use xlink:href="#SegoeUI-4a" transform="translate(1897.609375 0)"/>
     <use xlink:href="#SegoeUI-48" transform="translate(1956.5 0)"/>
     <use xlink:href="#SegoeUI-f" transform="translate(2008.796875 0)"/>
     <use xlink:href="#SegoeUI-3" transform="translate(2030.484375 0)"/>
     <use xlink:href="#SegoeUI-53" transform="translate(2057.875 0)"/>
     <use xlink:href="#SegoeUI-55" transform="translate(2116.671875 0)"/>
     <use xlink:href="#SegoeUI-58" transform="translate(2151.4375 0)"/>
     <use xlink:href="#SegoeUI-51" transform="translate(2208.03125 0)"/>
     <use xlink:href="#SegoeUI-48" transform="translate(2264.625 0)"/>
     <use xlink:href="#SegoeUI-3" transform="translate(2316.921875 0)"/>
     <use xlink:href="#SegoeUI-2e" transform="translate(2344.3125 0)"/>
     <use xlink:href="#SegoeUI-39" transform="translate(2404.28125 0)"/>
     <use xlink:href="#SegoeUI-3" transform="translate(2466.390625 0)"/>
     <use xlink:href="#SegoeUI-44" transform="translate(2493.78125 0)"/>
     <use xlink:href="#SegoeUI-57" transform="translate(2544.65625 0)"/>
     <use xlink:href="#SegoeUI-3" transform="translate(2578.546875 0)"/>
     <use xlink:href="#SegoeUI-57" transform="translate(2605.9375 0)"/>
     <use xlink:href="#SegoeUI-52" transform="translate(2639.828125 0)"/>
     <use xlink:href="#SegoeUI-4e" transform="translate(2698.421875 0)"/>
     <use xlink:href="#SegoeUI-48" transform="translate(2748.125 0)"/>
     <use xlink:href="#SegoeUI-51" transform="translate(2800.421875 0)"/>
     <use xlink:href="#SegoeUI-3" transform="translate(2857.015625 0)"/>
     <use xlink:href="#SegoeUI-4a" transform="translate(2884.40625 0)"/>
     <use xlink:href="#SegoeUI-55" transform="translate(2943.296875 0)"/>
     <use xlink:href="#SegoeUI-44" transform="translate(2978.0625 0)"/>
     <use xlink:href="#SegoeUI-51" transform="translate(3028.9375 0)"/>
     <use xlink:href="#SegoeUI-58" transform="translate(3085.53125 0)"/>
     <use xlink:href="#SegoeUI-4f" transform="translate(3142.125 0)"/>
     <use xlink:href="#SegoeUI-44" transform="translate(3166.34375 0)"/>
     <use xlink:href="#SegoeUI-55" transform="translate(3217.21875 0)"/>
     <use xlink:href="#SegoeUI-4c" transform="translate(3251.984375 0)"/>
     <use xlink:href="#SegoeUI-57" transform="translate(3276.203125 0)"/>
     <use xlink:href="#SegoeUI-5c" transform="translate(3310.09375 0)"/>
     <use xlink:href="#SegoeUI-11" transform="translate(3358.484375 0)"/>
    </g>
   </g>
   <g id="line2d_10">
    <path d="M 53.28 89.028 
L 95.13 50.22 
" clip-path="url(#pe1fa7608a1)" style="fill: none; stroke: #76b900; stroke-width: 2.6; stroke-linecap: round"/>
   </g>
   <g id="line2d_11">
    <path d="M 95.13 50.22 
L 136.98 33.588 
" clip-path="url(#pe1fa7608a1)" style="fill: none; stroke: #76b900; stroke-width: 2.6; stroke-linecap: round"/>
   </g>
   <g id="line2d_12">
    <path d="M 136.98 33.588 
L 178.83 22.5 
" clip-path="url(#pe1fa7608a1)" style="fill: none; stroke: #76b900; stroke-width: 2.6; stroke-linecap: round"/>
   </g>
   <g id="patch_2">
    <path d="M 95.13 92.79792 
C 96.136287 92.79792 97.101494 92.400697 97.813046 91.693736 
C 98.524598 90.986775 98.9244 90.027794 98.9244 89.028 
C 98.9244 88.028206 98.524598 87.069225 97.813046 86.362264 
C 97.101494 85.655303 96.136287 85.25808 95.13 85.25808 
C 94.123713 85.25808 93.158506 85.655303 92.446954 86.362264 
C 91.735402 87.069225 91.3356 88.028206 91.3356 89.028 
C 91.3356 90.027794 91.735402 90.986775 92.446954 91.693736 
C 93.158506 92.400697 94.123713 92.79792 95.13 92.79792 
z
" clip-path="url(#pe1fa7608a1)" style="fill: #0a0a0a; opacity: 0.6; stroke: #0a0a0a; stroke-linejoin: miter"/>
   </g>
   <g id="patch_3">
    <path d="M 95.13 131.05152 
C 95.988303 131.05152 96.811568 130.712713 97.41848 130.109716 
C 98.025392 129.506719 98.3664 128.688766 98.3664 127.836 
C 98.3664 126.983234 98.025392 126.165281 97.41848 125.562284 
C 96.811568 124.959287 95.988303 124.62048 95.13 124.62048 
C 94.271697 124.62048 93.448432 124.959287 92.84152 125.562284 
C 92.234608 126.165281 91.8936 126.983234 91.8936 127.836 
C 91.8936 128.688766 92.234608 129.506719 92.84152 130.109716 
C 93.448432 130.712713 94.271697 131.05152 95.13 131.05152 
L 95.13 131.05152 
z
" clip-path="url(#pe1fa7608a1)" style="fill: none; opacity: 0.28; stroke: #0a0a0a; stroke-width: 1.2; stroke-linejoin: miter"/>
   </g>
   <g id="patch_4">
    <path d="M 136.98 64.52352 
C 137.838303 64.52352 138.661568 64.184713 139.26848 63.581716 
C 139.875392 62.978719 140.2164 62.160766 140.2164 61.308 
C 140.2164 60.455234 139.875392 59.637281 139.26848 59.034284 
C 138.661568 58.431287 137.838303 58.09248 136.98 58.09248 
C 136.121697 58.09248 135.298432 58.431287 134.69152 59.034284 
C 134.084608 59.637281 133.7436 60.455234 133.7436 61.308 
C 133.7436 62.160766 134.084608 62.978719 134.69152 63.581716 
C 135.298432 64.184713 136.121697 64.52352 136.98 64.52352 
L 136.98 64.52352 
z
" clip-path="url(#pe1fa7608a1)" style="fill: none; opacity: 0.28; stroke: #0a0a0a; stroke-width: 1.2; stroke-linejoin: miter"/>
   </g>
   <g id="patch_5">
    <path d="M 136.98 92.79792 
C 137.986287 92.79792 138.951494 92.400697 139.663046 91.693736 
C 140.374598 90.986775 140.7744 90.027794 140.7744 89.028 
C 140.7744 88.028206 140.374598 87.069225 139.663046 86.362264 
C 138.951494 85.655303 137.986287 85.25808 136.98 85.25808 
C 135.973713 85.25808 135.008506 85.655303 134.296954 86.362264 
C 133.585402 87.069225 133.1856 88.028206 133.1856 89.028 
C 133.1856 90.027794 133.585402 90.986775 134.296954 91.693736 
C 135.008506 92.400697 135.973713 92.79792 136.98 92.79792 
z
" clip-path="url(#pe1fa7608a1)" style="fill: #0a0a0a; opacity: 0.6; stroke: #0a0a0a; stroke-linejoin: miter"/>
   </g>
   <g id="patch_6">
    <path d="M 136.98 119.96352 
C 137.838303 119.96352 138.661568 119.624713 139.26848 119.021716 
C 139.875392 118.418719 140.2164 117.600766 140.2164 116.748 
C 140.2164 115.895234 139.875392 115.077281 139.26848 114.474284 
C 138.661568 113.871287 137.838303 113.53248 136.98 113.53248 
C 136.121697 113.53248 135.298432 113.871287 134.69152 114.474284 
C 134.084608 115.077281 133.7436 115.895234 133.7436 116.748 
C 133.7436 117.600766 134.084608 118.418719 134.69152 119.021716 
C 135.298432 119.624713 136.121697 119.96352 136.98 119.96352 
L 136.98 119.96352 
z
" clip-path="url(#pe1fa7608a1)" style="fill: none; opacity: 0.28; stroke: #0a0a0a; stroke-width: 1.2; stroke-linejoin: miter"/>
   </g>
   <g id="patch_7">
    <path d="M 136.98 142.13952 
C 137.838303 142.13952 138.661568 141.800713 139.26848 141.197716 
C 139.875392 140.594719 140.2164 139.776766 140.2164 138.924 
C 140.2164 138.071234 139.875392 137.253281 139.26848 136.650284 
C 138.661568 136.047287 137.838303 135.70848 136.98 135.70848 
C 136.121697 135.70848 135.298432 136.047287 134.69152 136.650284 
C 134.084608 137.253281 133.7436 138.071234 133.7436 138.924 
C 133.7436 139.776766 134.084608 140.594719 134.69152 141.197716 
C 135.298432 141.800713 136.121697 142.13952 136.98 142.13952 
L 136.98 142.13952 
z
" clip-path="url(#pe1fa7608a1)" style="fill: none; opacity: 0.28; stroke: #0a0a0a; stroke-width: 1.2; stroke-linejoin: miter"/>
   </g>
   <g id="patch_8">
    <path d="M 178.83 47.89152 
C 179.688303 47.89152 180.511568 47.552713 181.11848 46.949716 
C 181.725392 46.346719 182.0664 45.528766 182.0664 44.676 
C 182.0664 43.823234 181.725392 43.005281 181.11848 42.402284 
C 180.511568 41.799287 179.688303 41.46048 178.83 41.46048 
C 177.971697 41.46048 177.148432 41.799287 176.54152 42.402284 
C 175.934608 43.005281 175.5936 43.823234 175.5936 44.676 
C 175.5936 45.528766 175.934608 46.346719 176.54152 46.949716 
C 177.148432 47.552713 177.971697 47.89152 178.83 47.89152 
L 178.83 47.89152 
z
" clip-path="url(#pe1fa7608a1)" style="fill: none; opacity: 0.28; stroke: #0a0a0a; stroke-width: 1.2; stroke-linejoin: miter"/>
   </g>
   <g id="patch_9">
    <path d="M 178.83 92.79792 
C 179.836287 92.79792 180.801494 92.400697 181.513046 91.693736 
C 182.224598 90.986775 182.6244 90.027794 182.6244 89.028 
C 182.6244 88.028206 182.224598 87.069225 181.513046 86.362264 
C 180.801494 85.655303 179.836287 85.25808 178.83 85.25808 
C 177.823713 85.25808 176.858506 85.655303 176.146954 86.362264 
C 175.435402 87.069225 175.0356 88.028206 175.0356 89.028 
C 175.0356 90.027794 175.435402 90.986775 176.146954 91.693736 
C 176.858506 92.400697 177.823713 92.79792 178.83 92.79792 
z
" clip-path="url(#pe1fa7608a1)" style="fill: #0a0a0a; opacity: 0.6; stroke: #0a0a0a; stroke-linejoin: miter"/>
   </g>
   <g id="patch_10">
    <path d="M 178.83 119.96352 
C 179.688303 119.96352 180.511568 119.624713 181.11848 119.021716 
C 181.725392 118.418719 182.0664 117.600766 182.0664 116.748 
C 182.0664 115.895234 181.725392 115.077281 181.11848 114.474284 
C 180.511568 113.871287 179.688303 113.53248 178.83 113.53248 
C 177.971697 113.53248 177.148432 113.871287 176.54152 114.474284 
C 175.934608 115.077281 175.5936 115.895234 175.5936 116.748 
C 175.5936 117.600766 175.934608 118.418719 176.54152 119.021716 
C 177.148432 119.624713 177.971697 119.96352 178.83 119.96352 
L 178.83 119.96352 
z
" clip-path="url(#pe1fa7608a1)" style="fill: none; opacity: 0.28; stroke: #0a0a0a; stroke-width: 1.2; stroke-linejoin: miter"/>
   </g>
   <g id="patch_11">
    <path d="M 53.28 93.7404 
C 54.537858 93.7404 55.744367 93.243872 56.633807 92.36017 
C 57.523248 91.476468 58.023 90.277743 58.023 89.028 
C 58.023 87.778257 57.523248 86.579532 56.633807 85.69583 
C 55.744367 84.812128 54.537858 84.3156 53.28 84.3156 
C 52.022142 84.3156 50.815633 84.812128 49.926193 85.69583 
C 49.036752 86.579532 48.537 87.778257 48.537 89.028 
C 48.537 90.277743 49.036752 91.476468 49.926193 92.36017 
C 50.815633 93.243872 52.022142 93.7404 53.28 93.7404 
z
" clip-path="url(#pe1fa7608a1)" style="fill: #76b900; stroke: #76b900; stroke-linejoin: miter"/>
   </g>
   <g id="patch_12">
    <path d="M 95.13 54.9324 
C 96.387858 54.9324 97.594367 54.435872 98.483807 53.55217 
C 99.373248 52.668468 99.873 51.469743 99.873 50.22 
C 99.873 48.970257 99.373248 47.771532 98.483807 46.88783 
C 97.594367 46.004128 96.387858 45.5076 95.13 45.5076 
C 93.872142 45.5076 92.665633 46.004128 91.776193 46.88783 
C 90.886752 47.771532 90.387 48.970257 90.387 50.22 
C 90.387 51.469743 90.886752 52.668468 91.776193 53.55217 
C 92.665633 54.435872 93.872142 54.9324 95.13 54.9324 
z
" clip-path="url(#pe1fa7608a1)" style="fill: #76b900; stroke: #76b900; stroke-linejoin: miter"/>
   </g>
   <g id="patch_13">
    <path d="M 136.98 38.3004 
C 138.237858 38.3004 139.444367 37.803872 140.333807 36.92017 
C 141.223248 36.036468 141.723 34.837743 141.723 33.588 
C 141.723 32.338257 141.223248 31.139532 140.333807 30.25583 
C 139.444367 29.372128 138.237858 28.8756 136.98 28.8756 
C 135.722142 28.8756 134.515633 29.372128 133.626193 30.25583 
C 132.736752 31.139532 132.237 32.338257 132.237 33.588 
C 132.237 34.837743 132.736752 36.036468 133.626193 36.92017 
C 134.515633 37.803872 135.722142 38.3004 136.98 38.3004 
z
" clip-path="url(#pe1fa7608a1)" style="fill: #76b900; stroke: #76b900; stroke-linejoin: miter"/>
   </g>
   <g id="patch_14">
    <path d="M 178.83 28.3212 
C 180.383825 28.3212 181.874218 27.707842 182.972939 26.61621 
C 184.071659 25.524578 184.689 24.0438 184.689 22.5 
C 184.689 20.9562 184.071659 19.475422 182.972939 18.38379 
C 181.874218 17.292158 180.383825 16.6788 178.83 16.6788 
C 177.276175 16.6788 175.785782 17.292158 174.687061 18.38379 
C 173.588341 19.475422 172.971 20.9562 172.971 22.5 
C 172.971 24.0438 173.588341 25.524578 174.687061 26.61621 
C 175.785782 27.707842 177.276175 28.3212 178.83 28.3212 
z
" clip-path="url(#pe1fa7608a1)" style="fill: #76b900; stroke: #76b900; stroke-linejoin: miter"/>
   </g>
  </g>
 </g>
 <defs>
  <clipPath id="pe1fa7608a1">
   <rect x="8.64" y="8.64" width="613.8" height="160.776"/>
  </clipPath>
 </defs>
</svg>
